<svg xmlns="http://www.w3.org/2000/svg" viewBox="0 0 512 512">
  <rect width="512" height="512" rx="180" fill="#f6efe6" />
  <rect x="72" y="72" width="368" height="368" rx="112" fill="#1c1917" />
  <path
    fill="#c85935"
    d="M160 208c0-42 34-76 76-76h59c42 0 76 34 76 76 0 31-18 57-45 69 14 12 22 29 22 48 0 35-29 64-64 64h-64c-35 0-64-29-64-64 0-28 18-52 44-61-25-12-40-37-40-56Zm82-24c-13 0-24 11-24 24s11 24 24 24h48c13 0 24-11 24-24s-11-24-24-24Zm-12 104c-13 0-24 11-24 24s11 24 24 24h60c13 0 24-11 24-24s-11-24-24-24Z"
  />
</svg>
